<svg xmlns="http://www.w3.org/2000/svg" viewBox="0 0 34.96 46.91"><defs><style>.cls-1{fill:#255083;}</style></defs><title>filter_icon</title><g id="Layer_2" data-name="Layer 2"><g id="Layout"><path class="cls-1" d="M0,37.88H6v2H2.3v1.5H5.65v2H2.3v3.51H0Z"/><path class="cls-1" d="M9.57,46.91H7.28v-9h2.3Z"/><path class="cls-1" d="M11.38,37.88h2.3v7h3.75v2h-6Z"/><path class="cls-1" d="M16.79,37.88h6.79v2H21.33v7H19v-7H16.79Z"/><path class="cls-1" d="M27.48,43.86h-.64v3h-2.3v-9H28a3,3,0,0,1,3.11,3,2.82,2.82,0,0,1-1.48,2.58l1.9,3.46H29Zm.39-2a1,1,0,1,0,0-2h-1v2Z"/><path class="cls-1" d="M35,46.91h-2.3v-9H35Z"/><polygon class="cls-1" points="17.48 26 32.48 0 2.48 0 17.48 26"/></g></g></svg>