<svg xmlns="http://www.w3.org/2000/svg" viewBox="0 0 32 46.02"><defs><style>.cls-1{fill:#faf9f7;}.cls-2{fill:#255083;}</style></defs><title>icon_fb_02</title><g id="Layer_2" data-name="Layer 2"><g id="Livello_1" data-name="Livello 1"><polygon class="cls-1" points="16 37.55 2.2 23.48 16 9.41 29.8 23.48 16 37.55"/><polygon class="cls-1" points="31.61 16.69 16 0.77 0.39 16.69 0 16.32 16 0 32 16.32 31.61 16.69"/><polygon class="cls-1" points="16 46.02 0 29.7 0.39 29.33 16 45.25 31.61 29.33 32 29.7 16 46.02"/><path class="cls-2" d="M19.12,17.52H17.5a2.84,2.84,0,0,0-3,3.07V22H12.88a.25.25,0,0,0-.25.25v2.05a.25.25,0,0,0,.25.25h1.63v5.18a.25.25,0,0,0,.25.25h2.12a.25.25,0,0,0,.25-.25V24.57H19a.25.25,0,0,0,.25-.25V22.27A.25.25,0,0,0,19,22h-1.9v-1.2c0-.58.14-.87.89-.87h1.09a.25.25,0,0,0,.25-.25V17.78A.25.25,0,0,0,19.12,17.52Z"/></g></g></svg>