<svg xmlns="http://www.w3.org/2000/svg" viewBox="0 0 32 46.02"><defs><style>.cls-1{fill:#faf9f7;}.cls-2{fill:#255083;}</style></defs><title>icon_twit_02</title><g id="Layer_2" data-name="Layer 2"><g id="Livello_1" data-name="Livello 1"><polygon class="cls-1" points="16 37.19 2.2 23.12 16 9.05 29.8 23.12 16 37.19"/><polygon class="cls-1" points="31.61 16.69 16 0.77 0.39 16.69 0 16.32 16 0 32 16.32 31.61 16.69"/><polygon class="cls-1" points="16 46.02 0 29.7 0.39 29.33 16 45.25 31.61 29.33 32 29.7 16 46.02"/><path class="cls-2" d="M22,19.66a4.9,4.9,0,0,1-1.41.39,2.46,2.46,0,0,0,1.08-1.36,5,5,0,0,1-1.56.6,2.46,2.46,0,0,0-4.18,2.24A7,7,0,0,1,10.85,19a2.46,2.46,0,0,0,.76,3.27,2.45,2.45,0,0,1-1.11-.31v0a2.46,2.46,0,0,0,2,2.41,2.48,2.48,0,0,1-.65.09,2.35,2.35,0,0,1-.46,0,2.45,2.45,0,0,0,2.29,1.7,4.92,4.92,0,0,1-3,1,5.21,5.21,0,0,1-.59,0,7,7,0,0,0,10.74-5.88v-.32A4.9,4.9,0,0,0,22,19.66Z"/></g></g></svg>