<svg xmlns="http://www.w3.org/2000/svg" viewBox="0 0 32 46.02"><defs><style>.cls-1{fill:#faf9f7;}.cls-2{fill:#255083;}</style></defs><title>icon_inst_02</title><g id="Layer_2" data-name="Layer 2"><g id="Livello_1" data-name="Livello 1"><polygon class="cls-1" points="16 37.37 2.2 23.3 16 9.23 29.8 23.3 16 37.37"/><polygon class="cls-1" points="31.61 16.69 16 0.77 0.39 16.69 0 16.32 16 0 32 16.32 31.61 16.69"/><polygon class="cls-1" points="16 46.02 0 29.7 0.39 29.33 16 45.25 31.61 29.33 32 29.7 16 46.02"/><path class="cls-2" d="M11.87,18h8.25a1.39,1.39,0,0,1,1.42,1.42v8.25a1.39,1.39,0,0,1-1.42,1.42H11.87a1.39,1.39,0,0,1-1.42-1.42V19.44A1.39,1.39,0,0,1,11.87,18Zm6.66,1.23a.5.5,0,0,0-.5.5v1.2a.5.5,0,0,0,.5.5h1.25a.5.5,0,0,0,.5-.5v-1.2a.5.5,0,0,0-.5-.5Zm1.76,3.46h-1a3.25,3.25,0,0,1,.14,1,3.45,3.45,0,0,1-6.9,0,3.24,3.24,0,0,1,.14-1h-1V27.4a.44.44,0,0,0,.44.44h7.73a.44.44,0,0,0,.44-.44V22.71ZM16,21.38a2.16,2.16,0,1,0,2.23,2.16A2.2,2.2,0,0,0,16,21.38Z"/></g></g></svg>