<svg xmlns="http://www.w3.org/2000/svg" viewBox="0 0 300 100"><defs><style>.cls-1{fill:#fff;}</style></defs><title>logo_menu</title><g id="Layer_2" data-name="Layer 2"><g id="Layout"><path class="cls-1" d="M49.73,85.83a1.3,1.3,0,0,1,.59-.71,1.63,1.63,0,0,1,.88-.31.51.51,0,0,1,.53.41,2.11,2.11,0,0,1-.35,1.32,14.12,14.12,0,0,1-3.65,4.89,24,24,0,0,1-5,3.36,20.32,20.32,0,0,1-5.35,1.83,17.37,17.37,0,0,1-4.82.31,12.41,12.41,0,0,1-5.94-2.14q-2.41-1.73-2.18-6a15.57,15.57,0,0,1,1.7-5.86,29.87,29.87,0,0,1,4.12-6.32,23.81,23.81,0,0,1,5.88-5,13.69,13.69,0,0,1,7.23-2,8.15,8.15,0,0,1,3.65.66A5.52,5.52,0,0,1,49,71.72a3.78,3.78,0,0,1,.76,1.68,9.61,9.61,0,0,1,.12,1.22,8.65,8.65,0,0,1-1.94,5,12.83,12.83,0,0,1-4.35,3.31,22.2,22.2,0,0,1-5.82,1.83,35.86,35.86,0,0,1-6.23.56,1.07,1.07,0,0,0-.94.56A4.29,4.29,0,0,0,30,87.2a10.36,10.36,0,0,0-.24,1.48c0,.48-.06.78-.06.92A3.68,3.68,0,0,0,30.21,92a4.27,4.27,0,0,0,1.53,1.38,6.06,6.06,0,0,0,2.18.66,18.65,18.65,0,0,0,2.29.15,12.82,12.82,0,0,0,4.12-.71,20.57,20.57,0,0,0,4-1.83A14.67,14.67,0,0,0,47.61,89,11.3,11.3,0,0,0,49.73,85.83ZM28.21,82.36a1.22,1.22,0,0,1,.82-.31,4.11,4.11,0,0,1,2.06.66,4.09,4.09,0,0,0,2.06.66,14.84,14.84,0,0,0,8.64-2.9,12.94,12.94,0,0,0,3.06-3.26,9.08,9.08,0,0,0,1.47-4c0-.88-.2-1.43-.59-1.63a2.53,2.53,0,0,0-1.18-.31,6.9,6.9,0,0,0-3.23.76A13.09,13.09,0,0,0,38.56,74a17.78,17.78,0,0,0-2.35,2.6q-1.06,1.43-2,2.65l-.94,1.48-.71,1.12a1.86,1.86,0,0,0-.35.87,4,4,0,0,1-1.47-.46,3,3,0,0,0-1.47-.36,1.09,1.09,0,0,0-.53.1l-.41.2-.35.31A.36.36,0,0,1,28.21,82.36Z"/><path class="cls-1" d="M65.37,84.4a1.06,1.06,0,0,1,.94-.71c.55,0,.82.37.82,1.12a1.71,1.71,0,0,1-.24,1Q66,87.56,64.72,89.5A24,24,0,0,1,62,93.05a14.73,14.73,0,0,1-3.29,2.65,7.14,7.14,0,0,1-3.65,1,7,7,0,0,1-4-1,5,5,0,0,1-1.94-2.44A8.21,8.21,0,0,1,48.67,90a13.79,13.79,0,0,1,.71-3.57S57.92,66.06,58.31,65a14,14,0,0,0,3.06-.71l2-.71a29,29,0,0,1-2.88.41q-1.23.1-2.53.1-5.41-.31-7.17-1.53A3.35,3.35,0,0,1,49,60q0-.51.35-.41l.94.31a15.39,15.39,0,0,0,4.41.51q2.76,0,5.47-.1,1.06-2.75,1.7-4.79a11.36,11.36,0,0,0,.65-3.16q0-1.32-.53-1.43a8.86,8.86,0,0,1-1.35-.41c-.31-.07-.35-.19-.12-.36a2.88,2.88,0,0,1,1.06-.41q.7-.15,1.59-.31a8.84,8.84,0,0,1,1.47-.15,17.07,17.07,0,0,1,3.23.31q1.59.31,1.59,2.55a7.58,7.58,0,0,1-.76,3.11q-.77,1.68-2.06,4.94,3.29-.2,7.23-.56t8.17-.66q4.24-.31,8.41-.56t8.06-.26a34.17,34.17,0,0,1,11.23,1.53q4.29,1.53,4.29,4.48c0,.27-.12.37-.35.31q-2-.71-8.47-1T88.3,63.11H76.78q-3.06,0-5.94.1l-5.12.2q-2.12,4.81-4.88,10.84T56,85.6a19.5,19.5,0,0,1-.65,1.94,19.2,19.2,0,0,0-.82,2.91,5.85,5.85,0,0,0,0,2.61q.29,1.12,1.94,1.12a4.31,4.31,0,0,0,2.76-1.12,16.5,16.5,0,0,0,2.53-2.65,26.81,26.81,0,0,0,2.12-3.21Q64.78,85.52,65.37,84.4Z"/><path class="cls-1" d="M89.83,83.59a1.06,1.06,0,0,0-.94.71q-.59,1.12-1.53,2.8a30.15,30.15,0,0,1-2.12,3.26,15.56,15.56,0,0,1-2.53,2.7A4.31,4.31,0,0,1,80,94.18a1.08,1.08,0,0,1-1-.31,2.28,2.28,0,0,1-.59-1,6.64,6.64,0,0,1-.24-1.22c0-.41-.06-.68-.06-.82a23,23,0,0,1,.18-2.55,14.75,14.75,0,0,1,1-3.62,31,31,0,0,1,2.53-4.84,43.07,43.07,0,0,1,4.76-6.11,4.46,4.46,0,0,0,.88-1.12,3.72,3.72,0,0,0,.77-2,1.63,1.63,0,0,0-.41-1A1.5,1.5,0,0,0,86.54,69a2.57,2.57,0,0,0-.71.1,5.37,5.37,0,0,0-.59.2,5.09,5.09,0,0,0-.59.2,13.4,13.4,0,0,1-2.82,1.32,11.91,11.91,0,0,1-2.18.51,6.85,6.85,0,0,1-1.41.05l-.65-.05a1.9,1.9,0,0,1-1.71-.92,11.65,11.65,0,0,1-.46-1.26,2.47,2.47,0,0,0-3-1.45l-1,.27a1.52,1.52,0,0,0-1.17,2h0a7.61,7.61,0,0,0,.93,1.69.94.94,0,0,1,.11,1l-1,2-2.76,5.35-4,7.64a.82.82,0,0,0-.12.41,1.56,1.56,0,0,0-.12.71.81.81,0,0,0,.12.41.38.38,0,0,0,.35.2q.7,0,1.59-1.32t2.12-3.51q1.23-2.19,2.82-5.09,1.35-2.47,3-5.12a1.35,1.35,0,0,1,1.6-.48,11.23,11.23,0,0,0,4,.67,7.16,7.16,0,0,0,4.65-1.43,6.36,6.36,0,0,1-.95.84l-.23.14a9,9,0,0,1-1.29.5,6.35,6.35,0,0,1-1.88.25h-.7a17.68,17.68,0,0,0-2,2.75,31,31,0,0,0-2,3.92,32.21,32.21,0,0,0-1.59,4.69,24.46,24.46,0,0,0-.76,5,1.45,1.45,0,0,0,0,.15,7.3,7.3,0,0,0,1.11,3.74q1,1.48,3.94,1.68A8.49,8.49,0,0,0,80,96.58a10,10,0,0,0,2.35-1,10.39,10.39,0,0,0,1.88-1.38,15.41,15.41,0,0,0,1.41-1.48Q86.3,92,87.18,91t1.65-2.19a18.42,18.42,0,0,0,1.29-2.19,4.35,4.35,0,0,0,.53-1.88C90.65,84,90.38,83.59,89.83,83.59Z"/><path class="cls-1" d="M108.76,85.52a25.9,25.9,0,0,1-5.47,7.23,21.18,21.18,0,0,1-5.12,3.36,12.2,12.2,0,0,1-5.17,1A7,7,0,0,1,89.06,96a5.52,5.52,0,0,1-2.29-3.36,12.22,12.22,0,0,1,0-5.35,22.65,22.65,0,0,1,2.94-7.08,31.36,31.36,0,0,1,3.7-5.15A19.88,19.88,0,0,1,96.83,72a12.5,12.5,0,0,1,2.76-1.48,10.88,10.88,0,0,1,1.88-.51,5.78,5.78,0,0,1,1.65-.71q.82-.2,1.41-.41a4.71,4.71,0,0,1,1.29-.2,5.63,5.63,0,0,1,4.06.71,5,5,0,0,1,1.82,2.7,11.16,11.16,0,0,1,.35,3.67,21.45,21.45,0,0,1-.47,3.51c-.08.07-.12.12-.12.15s0,.09-.12.15h.24a.52.52,0,0,0,.35-.1,9.69,9.69,0,0,0,1.82-.61,9.39,9.39,0,0,0,2.53-1.63l.12-.2c.16-.13.49-.37,1-.71a1.69,1.69,0,0,1,1.7-.1,1,1,0,0,1,.71.71c.08.07.12.24.12.51a4.07,4.07,0,0,1-.94,1.73,9.26,9.26,0,0,1-3.94,2q-2.29.56-4.65,1l-.71,1.63A12.27,12.27,0,0,1,108.76,85.52ZM94.18,94.28a3.93,3.93,0,0,0,2.12.1A9.8,9.8,0,0,0,99.83,93,18,18,0,0,0,104,89.39a23.41,23.41,0,0,0,3.94-6.83v-.2q-1.3,0-2.82-.15a21.81,21.81,0,0,1-3-.51,10.12,10.12,0,0,1-2.7-1.07,4.41,4.41,0,0,1-1.82-1.94,1.46,1.46,0,0,1-.24-.71,1.23,1.23,0,0,1-.12-.61,2.46,2.46,0,0,1-.06-.92c0-.27.1-.58.18-.92a13.16,13.16,0,0,1,.53-1.78,8.76,8.76,0,0,1,.41-1,13.89,13.89,0,0,0-1.41,2.29A5.44,5.44,0,0,0,96.65,79q-.47.82-.88,1.58c-.28.51-.53,1-.77,1.38a4,4,0,0,0-.35.76,8.47,8.47,0,0,1-.35.87,22.63,22.63,0,0,0-2.06,5.86,6.29,6.29,0,0,0,.18,3.21A2.63,2.63,0,0,0,94.18,94.28Zm8.23-19.76q-.94,2.65,1.12,4a10.1,10.1,0,0,0,5.23,1.43q.12-.61.47-2a11.27,11.27,0,0,0,.35-2.8,6.23,6.23,0,0,0-.53-2.6,2.73,2.73,0,0,0-2.18-1.48,4,4,0,0,0-2.12.51,5.75,5.75,0,0,0-1.41,1.22A7.66,7.66,0,0,0,102.41,74.52Z"/><path class="cls-1" d="M143.34,84.3a1.06,1.06,0,0,1,.94-.71q.82,0,.82,1.12a1.7,1.7,0,0,1-.24,1q-.94,1.83-2.12,3.72a22.76,22.76,0,0,1-2.65,3.46,15.13,15.13,0,0,1-3.24,2.65,8.8,8.8,0,0,1-3.65,1.27q-3.29,0-4.53-1.12a4,4,0,0,1-1.23-3.16,30.37,30.37,0,0,1,.71-4.64,42.46,42.46,0,0,1,4-9.93,10,10,0,0,1,.82-1.53q.24-.61.53-1.27a3,3,0,0,0,.29-1.17.74.74,0,0,0-.12-.31.87.87,0,0,0-.82-.41h-.12a21.77,21.77,0,0,0-5.47,3.62,25.83,25.83,0,0,0-4.12,4.74,33.12,33.12,0,0,0-2.82,5.09q-1.12,2.55-1.82,4.59a25,25,0,0,0-.94,3.26c-.16.81-.24,1.16-.24,1a1,1,0,0,1-.59,1,3.08,3.08,0,0,1-.94.2q-2.58,0-3.47-1.58a6.69,6.69,0,0,1-.88-3.31,12.08,12.08,0,0,1,.29-2.7,12.48,12.48,0,0,1,.65-2.09l1.53-3.77q.47-1.12,1-2.65t.94-3q.41-1.43.76-2.7a8,8,0,0,0,.35-2,2.08,2.08,0,0,0-.59-1.58q-.59-.56-.59-.76t1.47-.82a8.47,8.47,0,0,1,2.76-.51,4.5,4.5,0,0,1,2.12.56,2.25,2.25,0,0,1,1.06,2.19,12.48,12.48,0,0,1-1,4.84q-1,2.4-1.82,4.94a33.13,33.13,0,0,1,6.53-7.64q3.35-2.75,4.41-3.57a7.78,7.78,0,0,1,2.53-1.07,6.66,6.66,0,0,1,2.82-.1,4.05,4.05,0,0,1,2.23,1.17,3.67,3.67,0,0,1,.88,2.65,11.07,11.07,0,0,1-1.23,4.48q-1.23,2.65-2.41,5l-1.71,3.62a24.4,24.4,0,0,0-1.12,2.8,7.58,7.58,0,0,0-.47,2,11.62,11.62,0,0,0,.12,1.83q.12.71,1.18.92A4.66,4.66,0,0,0,137,93a13.8,13.8,0,0,0,2.59-2.6,26.68,26.68,0,0,0,2.12-3.21Q142.63,85.52,143.34,84.3Z"/><path class="cls-1" d="M146.75,96.73a1.29,1.29,0,0,1-.65.05,6,6,0,0,0-.77-.05,4.63,4.63,0,0,1-3.65-1.22,4.22,4.22,0,0,1-1.06-2.85,13.15,13.15,0,0,1,.94-4.84q.94-2.39,2.06-4.79t2.06-4.79a13.41,13.41,0,0,0,.94-4.94,1.83,1.83,0,0,0-.59-1.38,1.54,1.54,0,0,1-.59-1.07q0-.2.53-.46a7.62,7.62,0,0,1,1.29-.46,12.05,12.05,0,0,1,1.59-.31,11.36,11.36,0,0,1,1.29-.1,4.38,4.38,0,0,1,2.18.56,2.18,2.18,0,0,1,1,2.09v.51a3.88,3.88,0,0,1-.12.81v.1a6.35,6.35,0,0,1-.29.92q-.3.82-1.06,2.8t-2.12,5.4q-1.35,3.41-3.47,8.71a.28.28,0,0,0-.12.2v.51a9,9,0,0,0,.18,1.12q.18.92,1.94.92a4.68,4.68,0,0,0,3.17-1.63,24.39,24.39,0,0,0,3-3.62q1.35-2,2.29-3.67T158,83.59q.94,0,.94,1.22a2.89,2.89,0,0,1-.24.92q-1.06,1.83-2.29,3.77a24.35,24.35,0,0,1-2.76,3.57,14.4,14.4,0,0,1-3.29,2.65A7.2,7.2,0,0,1,146.75,96.73Zm5.41-29.14a3.41,3.41,0,0,1-1.65-.87,2,2,0,0,1-.7-1.48,1.25,1.25,0,0,1,.12-.61l.94-2.65a2,2,0,0,1,1-1.12,3.57,3.57,0,0,1,1.71-.41,3.93,3.93,0,0,1,2.35.76A2.26,2.26,0,0,1,157,63.11a.4.4,0,0,1-.06.2.61.61,0,0,0-.06.31l-.94,2.55a1.94,1.94,0,0,1-1.06,1.12,3.91,3.91,0,0,1-1.76.41A2.79,2.79,0,0,1,152.16,67.59Z"/><path class="cls-1" d="M187.08,84.3a1.06,1.06,0,0,1,.94-.71q.94,0,.94,1.12a1.71,1.71,0,0,1-.24,1q-.82,1.63-2,3.51a22.72,22.72,0,0,1-2.65,3.46,18,18,0,0,1-3.23,2.75,7.37,7.37,0,0,1-3.76,1.27l-1.06.1q-3.53,0-4.41-1.17a5.22,5.22,0,0,1-.88-3.21,12.34,12.34,0,0,1,.53-1.63q.29-.71.53-1.22l.59-1q-1.06,1.22-2.23,2.7a20.33,20.33,0,0,1-2.59,2.7,13,13,0,0,1-3.23,2,9.82,9.82,0,0,1-4.06.81q-3.41,0-4.82-2A7.26,7.26,0,0,1,154,90.62a11.82,11.82,0,0,1,.94-4.38q.94-2.34,2.12-4.74t2.12-4.58a10.11,10.11,0,0,0,.94-3.92,1.76,1.76,0,0,0-.59-1.48c-.39-.31-.59-.56-.59-.76s.59-.65,1.76-.92a13.3,13.3,0,0,1,2.82-.41,3.73,3.73,0,0,1,2.18.61,2.42,2.42,0,0,1,.88,2.14,6.22,6.22,0,0,1-.23,1.43,23.66,23.66,0,0,1-1.18,3.06q-.24.51-1.12,2.5t-1.88,4.38q-1,2.39-1.82,4.69a11.37,11.37,0,0,0-.82,3.41,2,2,0,0,0,.94,1.94,4.12,4.12,0,0,0,2,.51,5.8,5.8,0,0,0,4.23-2.14q2-2.14,4.94-5.4l1.41-3.26q.47-1.22,1.18-2.9t1.29-3.21q.59-1.53,1-2.7A6.52,6.52,0,0,0,177,73a1.86,1.86,0,0,0-.53-1.48,1.24,1.24,0,0,1-.53-.87q0-.2.53-.46a5.7,5.7,0,0,1,1.23-.41c.47-.1,1-.19,1.47-.25a10,10,0,0,1,1.23-.1,5.45,5.45,0,0,1,2.35.56,1.35,1.35,0,0,1,.71,1.89q-.82,2.75-1.88,5.55t-2.06,5.35q-1,2.55-1.88,4.74a40.27,40.27,0,0,0-1.35,3.82,2.31,2.31,0,0,0,.18,2,2,2,0,0,0,1.82.87A4.31,4.31,0,0,0,181,93.06a14.77,14.77,0,0,0,2.53-2.75,29.88,29.88,0,0,0,2.06-3.26Q186.5,85.42,187.08,84.3Z"/><path class="cls-1" d="M211.07,83.59a.36.36,0,0,0,.23-.1.57.57,0,0,0,.24-.05.94.94,0,0,1,.35-.05.84.84,0,0,1,.7.31q.12.21-1.35,1.17t-6.41,2.09a7.85,7.85,0,0,1-1.05,4A11.06,11.06,0,0,1,201,94.13a13.93,13.93,0,0,1-4.15,2.19,16.1,16.1,0,0,1-5.21.82q-5,0-7.19-1.73t-2.16-3.46a4.16,4.16,0,0,1,.88-2.44,4.73,4.73,0,0,1,2.53-1.73q.35-.71,1.41-3.21t2.29-5.15q1.23-2.65,2.18-4.84a20,20,0,0,1,1.06-2.29A7.34,7.34,0,0,1,191,70.14a6.39,6.39,0,0,1-.7-3.06,8.86,8.86,0,0,1,.53-3,9.06,9.06,0,0,1,1.47-2.65,7.29,7.29,0,0,1,5.88-2.7,2.23,2.23,0,0,1,1.29.41,3.49,3.49,0,0,1,.88.87,2.63,2.63,0,0,1,.41,1.58,6.38,6.38,0,0,1-.88,2.8,52.76,52.76,0,0,1-3.24,5,36.16,36.16,0,0,0,2.59,3.72,44.56,44.56,0,0,1,2.61,3.67,25.39,25.39,0,0,1,2.06,4A15.83,15.83,0,0,1,205,85.32,19.91,19.91,0,0,0,211.07,83.59ZM198.19,89a19,19,0,0,0,2.93-.71,10,10,0,0,0,2-.92q-1.64.31-3.57.61t-4.27.51a16.36,16.36,0,0,1-2.46.05,24.37,24.37,0,0,0-3.51.15,8.77,8.77,0,0,0-3.1.92,2.46,2.46,0,0,0-1.35,2.34,2.16,2.16,0,0,0,1.4,1.94,7.43,7.43,0,0,0,3.4.71,12.22,12.22,0,0,0,5.15-1.32A5.75,5.75,0,0,0,198.19,89Zm-4.05-15.18q-.59,1.53-1.36,3.36t-1.6,3.67q-.83,1.83-1.65,3.51a30.13,30.13,0,0,1-1.54,2.8,8.43,8.43,0,0,1,1.12-.1c.28,0,.75,0,1.41-.05s1.63-.1,2.89-.2,3.07-.29,5.42-.56v-.92a15,15,0,0,0-1.35-6.11A22,22,0,0,0,194.14,73.81Zm3.41-13.35a3.07,3.07,0,0,0-1.53.61q-.94.61-.94,3.06c0,.41,0,.93.06,1.58a5.51,5.51,0,0,0,.53,2,41.33,41.33,0,0,0,2-3.67,7,7,0,0,0,.82-2.75c0-.47-.16-.75-.47-.81Z"/><path class="cls-1" d="M68.31,27.36a29.18,29.18,0,0,1-4,11,36.19,36.19,0,0,1-7.67,9,41.57,41.57,0,0,1-10.06,6.26,33.62,33.62,0,0,1-11,2.85A24.77,24.77,0,0,1,28.76,56c-1,3.23-8.61,27.86-9.23,30.36a31,31,0,0,0-.77,4A5.09,5.09,0,0,0,19,92.63v0a10.23,10.23,0,0,1,.47,2.62,1.44,1.44,0,0,1-.29.91c-.22.31-.89.41-1.18.43-1.06-.08-1.48-.86-2.1-1.5a11.41,11.41,0,0,1-1.83-2.81A13.44,13.44,0,0,1,13,87.35a19.46,19.46,0,0,1,.35-5C13.68,80.51,21.1,56.24,22,53a18.9,18.9,0,0,1-3.27-4,13.9,13.9,0,0,1-1.88-6.5,19.52,19.52,0,0,1,.6-6.54A21.4,21.4,0,0,1,19,32.13a38.39,38.39,0,0,1,5.57-8.73c3.36-3.94,5-5.91,7.28-6.31s4.64.29,5.72-1.26c.48-.69.45-1.47,1.15-1.76a2.11,2.11,0,0,1,2.23.75,3.07,3.07,0,0,1,.53,2,6.13,6.13,0,0,1-.28,2Q40.8,20,39.62,23.3t-3.41,9.94Q34,39.83,30.15,51.65l2.29.27a12.2,12.2,0,0,0,2.27,0,21.57,21.57,0,0,0,9.63-3.33A36.3,36.3,0,0,0,53,41.17,38.42,38.42,0,0,0,59,31.62a20.84,20.84,0,0,0,1.92-10,18.09,18.09,0,0,0-2-6.94,20.12,20.12,0,0,0-4.75-6.06A21.36,21.36,0,0,0,47,4.56a23.27,23.27,0,0,0-9.42-1A31.61,31.61,0,0,0,27.88,6a41.53,41.53,0,0,0-9.32,5.37,40.57,40.57,0,0,0-7.6,7.6,24.78,24.78,0,0,0-4.5,9.29,5.41,5.41,0,0,0-.15,1.93,7,7,0,0,0,.86,3,9.58,9.58,0,0,0,1.57,2.09,8,8,0,0,0,2.16,1.46,2.53,2.53,0,0,1-.44,1.73A5.06,5.06,0,0,1,9.2,39.68a7.06,7.06,0,0,1-1.51.78,4.83,4.83,0,0,1-1,.3,4.83,4.83,0,0,1-3.25-.71,7,7,0,0,1-2-2.06,8.54,8.54,0,0,1-1-2.43,12.27,12.27,0,0,1-.36-2,12.11,12.11,0,0,1,.36-3.87,25.22,25.22,0,0,1,1.29-3.79q.79-1.83,1.61-3.3a15.38,15.38,0,0,1,1.47-2.26,67.45,67.45,0,0,1,4.6-5.23,53.88,53.88,0,0,1,7.36-6.33,55.21,55.21,0,0,1,9.89-5.64A36.94,36.94,0,0,1,39,.16,38.18,38.18,0,0,1,51.59,1,25.45,25.45,0,0,1,60.7,5.29a18.63,18.63,0,0,1,5.6,6.9,24.09,24.09,0,0,1,2.25,8.64,25.1,25.1,0,0,1,0,3.26Q68.48,25.72,68.31,27.36ZM22,32.63a20,20,0,0,0-1.79,4.8,13.9,13.9,0,0,0-.34,3.94,12.86,12.86,0,0,0,1.48,5.27,11.85,11.85,0,0,0,1.92,2.59c.93-2.93,7.62-23.28,9.06-27,.05-.15.12-.36.18-.63.17-.69.11-.83.06-.91a.61.61,0,0,0-.42-.22c-.84-.13-2.07,1.12-2.07,1.12-2.29,2.32-3,3.17-3,3.17C25.73,26.57,25,27.47,24.62,28A33.94,33.94,0,0,0,22,32.63Z"/><path class="cls-1" d="M47.74,18.87"/><path class="cls-1" d="M231.28,69.86q.14-.5.75-.43a3.14,3.14,0,0,1,1.27.48,4.67,4.67,0,0,1,1.17,1,1.78,1.78,0,0,1,.47,1.23,9.57,9.57,0,0,1-.4,1.19l-1,2.77L232.08,80l-1.66,4.46q-.85,2.29-1.65,4.55t-1.45,4.14q-.65,1.88-1.06,3.25a10.29,10.29,0,0,0-.45,1.87q0,.25-.07.55a2.24,2.24,0,0,1-.14.57,1.29,1.29,0,0,1-.28.44.57.57,0,0,1-.42.18,2.63,2.63,0,0,1-.87-.28,8.5,8.5,0,0,1-1.25-.71,6.67,6.67,0,0,1-1.1-.92,1.25,1.25,0,0,1-.44-.92,13.27,13.27,0,0,1,.8-2l1.9-4.23q1.13-2.52,2.42-5.54t2.41-5.94a11.12,11.12,0,0,1-1.52,1q-.85.48-1.74.87a11.64,11.64,0,0,1-1.78.62,6.58,6.58,0,0,1-1.66.23,1.56,1.56,0,0,1-1-.27.81.81,0,0,1-.33-.66q0-.21.61-.64t1.57-1q1-.6,2.11-1.42a21.36,21.36,0,0,0,2.25-1.85,15.34,15.34,0,0,0,2-2.27,8.73,8.73,0,0,0,1.31-2.74,5.14,5.14,0,0,1,.35-1A1.1,1.1,0,0,1,231.28,69.86Z"/><path class="cls-1" d="M234.28,95a1,1,0,0,1,.56-.89,3.11,3.11,0,0,1,1.24-.39,4.38,4.38,0,0,1,1.25,0q.58.11.58.39a.64.64,0,0,1,0,.25l-.09.21a2.07,2.07,0,0,0-.09.36,4.26,4.26,0,0,0,0,.64,1.62,1.62,0,0,0,.23.89,2.26,2.26,0,0,0,.56.6,2.13,2.13,0,0,0,.71.36,2.73,2.73,0,0,0,.73.11,3.92,3.92,0,0,0,2.13-.69A11,11,0,0,0,244.14,95a21.48,21.48,0,0,0,2-2.64q1-1.5,1.83-3.07a10.56,10.56,0,0,1-1.86.69,7.64,7.64,0,0,1-2,.25,6.93,6.93,0,0,1-2.58-.5,8.6,8.6,0,0,1-2.25-1.3,8,8,0,0,1-1.67-1.83,5.38,5.38,0,0,1-.85-2.13,12.51,12.51,0,0,1,.31-5.31,14.69,14.69,0,0,1,2.3-4.83,12.93,12.93,0,0,1,3.82-3.5,9.34,9.34,0,0,1,4.9-1.35,7.49,7.49,0,0,1,4.63,1.3,6.88,6.88,0,0,1,2.41,3.43,12.64,12.64,0,0,1,.51,4.83,23.8,23.8,0,0,1-1.1,5.54,31.31,31.31,0,0,1-2.39,5.55A26.1,26.1,0,0,1,248.83,95a17.44,17.44,0,0,1-4.08,3.43,8.59,8.59,0,0,1-4.44,1.3,7.44,7.44,0,0,1-2.47-.39,6,6,0,0,1-1.9-1,4.85,4.85,0,0,1-1.22-1.51A3.87,3.87,0,0,1,234.28,95Zm9.3-6.26a3.51,3.51,0,0,0,1.52-.35,7.17,7.17,0,0,0,1.46-.94,9.31,9.31,0,0,0,1.34-1.37,17.77,17.77,0,0,0,1.18-1.67,1.21,1.21,0,0,1-.28-.57,2.32,2.32,0,0,1,.47-1.28q.54-.92,1.17-2.11a18.69,18.69,0,0,0,1.1-2.52,5,5,0,0,0,.26-2.54,7.66,7.66,0,0,0-.89-2.8,2.14,2.14,0,0,0-2-1,4.22,4.22,0,0,0-2.4.78,8.78,8.78,0,0,0-2.09,2,17,17,0,0,0-1.69,2.82,21.75,21.75,0,0,0-1.22,3.12,19.48,19.48,0,0,0-.66,3,8.34,8.34,0,0,0-.05,2.32,3.9,3.9,0,0,0,1,2.34A2.48,2.48,0,0,0,243.58,88.73Z"/><path class="cls-1" d="M273.86,95.81q.38-.11.42.39a3.62,3.62,0,0,1-.14,1.15,5.61,5.61,0,0,1-.51,1.26,1.42,1.42,0,0,1-.64.71,7.85,7.85,0,0,1-1.52,0l-3.08-.11-3.88-.16-3.9-.16q-1.83-.07-3.17-.05a7,7,0,0,0-1.62.12,2.29,2.29,0,0,1-.57.12c-.17,0-.28-.09-.33-.3a2.16,2.16,0,0,1,0-1.12,1.85,1.85,0,0,1,.89-1.16q.24-.21,1.18-.94t2.27-1.85q1.32-1.12,2.94-2.58t3.28-3.11q1.66-1.65,3.21-3.43a36.84,36.84,0,0,0,2.75-3.55,21.45,21.45,0,0,0,1.93-3.47,8,8,0,0,0,.73-3.18,2.74,2.74,0,0,0-.24-1.12,3.74,3.74,0,0,0-.64-1,3.19,3.19,0,0,0-.92-.71,2.42,2.42,0,0,0-1.12-.27,7,7,0,0,0-3.85,1.08,11.07,11.07,0,0,0-2.88,2.65,11.88,11.88,0,0,0-1.79,3.34,9.89,9.89,0,0,0-.61,3.16,4.46,4.46,0,0,0,.1,1.1,2.39,2.39,0,0,0,.24.62c.09.15.17.28.24.37a.59.59,0,0,1,.1.36c0,.28-.2.43-.61.43a2.37,2.37,0,0,1-1.36-.55,4.91,4.91,0,0,1-1.36-1.71,6.51,6.51,0,0,1-.61-3,4.58,4.58,0,0,1,.28-1.21A11,11,0,0,1,260,76a14.11,14.11,0,0,1,1.6-2.24A12.21,12.21,0,0,1,264,71.67a13.08,13.08,0,0,1,7.51-2.2,7.24,7.24,0,0,1,5,1.51,5.27,5.27,0,0,1,1.69,4.14,8,8,0,0,1-.87,3.34A24.86,24.86,0,0,1,275,82.28q-1.41,2-3.17,4t-3.56,3.87q-1.79,1.87-3.43,3.47t-2.79,2.77q1.46.07,3,.11t3.15,0q1.57,0,3-.2A16.46,16.46,0,0,0,273.86,95.81Z"/><path class="cls-1" d="M300,74.23a1,1,0,0,1-.57.89,3.25,3.25,0,0,1-1.25.39,4.24,4.24,0,0,1-1.24,0c-.37-.07-.56-.2-.56-.39a.64.64,0,0,1,0-.23l.09-.23a2,2,0,0,0,.09-.36,4.47,4.47,0,0,0,0-.64,1.64,1.64,0,0,0-.23-.87,2,2,0,0,0-.56-.6,2.74,2.74,0,0,0-.71-.36,2.4,2.4,0,0,0-.73-.12,3.92,3.92,0,0,0-2.12.7,10.68,10.68,0,0,0-2.13,1.85,23.33,23.33,0,0,0-2,2.64,35.51,35.51,0,0,0-1.83,3,10.53,10.53,0,0,1,1.86-.69,7.63,7.63,0,0,1,2-.25,6.94,6.94,0,0,1,2.58.5,8.64,8.64,0,0,1,2.25,1.3,8,8,0,0,1,1.67,1.83,5.41,5.41,0,0,1,.85,2.13,12.53,12.53,0,0,1-.31,5.31,14.68,14.68,0,0,1-2.3,4.83,12.91,12.91,0,0,1-3.82,3.5,9.33,9.33,0,0,1-4.9,1.35,7.48,7.48,0,0,1-4.63-1.3A6.87,6.87,0,0,1,279.09,95a12.64,12.64,0,0,1-.51-4.83,23.82,23.82,0,0,1,1.1-5.55,31.27,31.27,0,0,1,2.39-5.54,26.08,26.08,0,0,1,3.38-4.83,17.39,17.39,0,0,1,4.08-3.43A8.59,8.59,0,0,1,294,69.5a7.44,7.44,0,0,1,2.47.39,6,6,0,0,1,1.9,1,4.86,4.86,0,0,1,1.22,1.51A3.87,3.87,0,0,1,300,74.23Zm-9.3,6.26a3.51,3.51,0,0,0-1.52.35,7.15,7.15,0,0,0-1.46.94,9.31,9.31,0,0,0-1.34,1.37,17.85,17.85,0,0,0-1.18,1.67,1.23,1.23,0,0,1,.28.57,2.3,2.3,0,0,1-.47,1.29q-.54.91-1.17,2.09a18.8,18.8,0,0,0-1.1,2.52,5,5,0,0,0-.26,2.54,7.64,7.64,0,0,0,.89,2.8,2.13,2.13,0,0,0,2,1,4.21,4.21,0,0,0,2.4-.78,8.76,8.76,0,0,0,2.09-2A17,17,0,0,0,291.51,92a21.69,21.69,0,0,0,1.22-3.12,19.62,19.62,0,0,0,.66-3,8.43,8.43,0,0,0,.05-2.32,3.91,3.91,0,0,0-1-2.34A2.48,2.48,0,0,0,290.7,80.49Z"/></g></g></svg>